<mxfile host="Electron" agent="Mozilla/5.0 (Macintosh; Intel Mac OS X 10_15_7) AppleWebKit/537.36 (KHTML, like Gecko) draw.io/28.1.2 Chrome/138.0.7204.243 Electron/37.4.0 Safari/537.36" version="28.1.2">
  <diagram name="Pagina-1" id="ez4KBVGzrwUUIV-H-W5h">
    <mxGraphModel dx="1214" dy="1118" grid="1" gridSize="10" guides="1" tooltips="1" connect="1" arrows="1" fold="1" page="1" pageScale="1" pageWidth="827" pageHeight="1169" math="0" shadow="0">
      <root>
        <mxCell id="0" />
        <mxCell id="1" parent="0" />
        <mxCell id="PQGQzHdsC42U59Fk3U6y-1" value="productcode&amp;nbsp;&lt;div&gt;(EAN-13)&lt;/div&gt;" style="rounded=0;whiteSpace=wrap;html=1;" vertex="1" parent="1">
          <mxGeometry x="610" y="105" width="120" height="60" as="geometry" />
        </mxCell>
        <mxCell id="PQGQzHdsC42U59Fk3U6y-2" value="0NF" style="text;html=1;align=center;verticalAlign=middle;whiteSpace=wrap;rounded=0;" vertex="1" parent="1">
          <mxGeometry x="40" y="40" width="60" height="30" as="geometry" />
        </mxCell>
        <mxCell id="PQGQzHdsC42U59Fk3U6y-3" value="Aankoop" style="text;html=1;align=center;verticalAlign=middle;whiteSpace=wrap;rounded=0;" vertex="1" parent="1">
          <mxGeometry x="40" y="120" width="60" height="30" as="geometry" />
        </mxCell>
        <mxCell id="PQGQzHdsC42U59Fk3U6y-4" value="productnaam" style="rounded=0;whiteSpace=wrap;html=1;" vertex="1" parent="1">
          <mxGeometry x="730" y="105" width="120" height="60" as="geometry" />
        </mxCell>
        <mxCell id="PQGQzHdsC42U59Fk3U6y-5" value="datum_en_tijd" style="rounded=0;whiteSpace=wrap;html=1;" vertex="1" parent="1">
          <mxGeometry x="130" y="105" width="120" height="60" as="geometry" />
        </mxCell>
        <mxCell id="PQGQzHdsC42U59Fk3U6y-6" value="klantcode" style="rounded=0;whiteSpace=wrap;html=1;" vertex="1" parent="1">
          <mxGeometry x="250" y="105" width="120" height="60" as="geometry" />
        </mxCell>
        <mxCell id="PQGQzHdsC42U59Fk3U6y-7" value="klantnaam" style="rounded=0;whiteSpace=wrap;html=1;" vertex="1" parent="1">
          <mxGeometry x="370" y="105" width="120" height="60" as="geometry" />
        </mxCell>
        <mxCell id="PQGQzHdsC42U59Fk3U6y-8" value="e-mailadres" style="rounded=0;whiteSpace=wrap;html=1;" vertex="1" parent="1">
          <mxGeometry x="490" y="105" width="120" height="60" as="geometry" />
        </mxCell>
        <mxCell id="PQGQzHdsC42U59Fk3U6y-9" value="korte_naam" style="rounded=0;whiteSpace=wrap;html=1;" vertex="1" parent="1">
          <mxGeometry x="850" y="105" width="120" height="60" as="geometry" />
        </mxCell>
        <mxCell id="PQGQzHdsC42U59Fk3U6y-10" value="prijs" style="rounded=0;whiteSpace=wrap;html=1;" vertex="1" parent="1">
          <mxGeometry x="970" y="105" width="120" height="60" as="geometry" />
        </mxCell>
        <mxCell id="PQGQzHdsC42U59Fk3U6y-11" value="aantal" style="rounded=0;whiteSpace=wrap;html=1;" vertex="1" parent="1">
          <mxGeometry x="1090" y="105" width="120" height="60" as="geometry" />
        </mxCell>
        <mxCell id="PQGQzHdsC42U59Fk3U6y-12" value="" style="endArrow=classic;startArrow=classic;html=1;rounded=0;" edge="1" parent="1">
          <mxGeometry width="50" height="50" relative="1" as="geometry">
            <mxPoint x="130" y="100" as="sourcePoint" />
            <mxPoint x="370" y="100" as="targetPoint" />
          </mxGeometry>
        </mxCell>
        <mxCell id="PQGQzHdsC42U59Fk3U6y-13" value="productcode&amp;nbsp;&lt;div&gt;(EAN-13)&lt;/div&gt;" style="rounded=0;whiteSpace=wrap;html=1;" vertex="1" parent="1">
          <mxGeometry x="370" y="400" width="120" height="60" as="geometry" />
        </mxCell>
        <mxCell id="PQGQzHdsC42U59Fk3U6y-14" value="1NF" style="text;html=1;align=center;verticalAlign=middle;whiteSpace=wrap;rounded=0;" vertex="1" parent="1">
          <mxGeometry x="40" y="220" width="60" height="30" as="geometry" />
        </mxCell>
        <mxCell id="PQGQzHdsC42U59Fk3U6y-15" value="Aankoop" style="text;html=1;align=center;verticalAlign=middle;whiteSpace=wrap;rounded=0;" vertex="1" parent="1">
          <mxGeometry x="40" y="300" width="60" height="30" as="geometry" />
        </mxCell>
        <mxCell id="PQGQzHdsC42U59Fk3U6y-16" value="productnaam" style="rounded=0;whiteSpace=wrap;html=1;" vertex="1" parent="1">
          <mxGeometry x="490" y="400" width="120" height="60" as="geometry" />
        </mxCell>
        <mxCell id="PQGQzHdsC42U59Fk3U6y-17" value="datum_en_tijd" style="rounded=0;whiteSpace=wrap;html=1;" vertex="1" parent="1">
          <mxGeometry x="130" y="285" width="120" height="60" as="geometry" />
        </mxCell>
        <mxCell id="PQGQzHdsC42U59Fk3U6y-18" value="klantcode" style="rounded=0;whiteSpace=wrap;html=1;" vertex="1" parent="1">
          <mxGeometry x="250" y="285" width="120" height="60" as="geometry" />
        </mxCell>
        <mxCell id="PQGQzHdsC42U59Fk3U6y-19" value="klantnaam" style="rounded=0;whiteSpace=wrap;html=1;" vertex="1" parent="1">
          <mxGeometry x="370" y="285" width="120" height="60" as="geometry" />
        </mxCell>
        <mxCell id="PQGQzHdsC42U59Fk3U6y-20" value="e-mailadres" style="rounded=0;whiteSpace=wrap;html=1;" vertex="1" parent="1">
          <mxGeometry x="490" y="285" width="120" height="60" as="geometry" />
        </mxCell>
        <mxCell id="PQGQzHdsC42U59Fk3U6y-21" value="korte_naam" style="rounded=0;whiteSpace=wrap;html=1;" vertex="1" parent="1">
          <mxGeometry x="610" y="400" width="120" height="60" as="geometry" />
        </mxCell>
        <mxCell id="PQGQzHdsC42U59Fk3U6y-22" value="prijs" style="rounded=0;whiteSpace=wrap;html=1;" vertex="1" parent="1">
          <mxGeometry x="730" y="400" width="120" height="60" as="geometry" />
        </mxCell>
        <mxCell id="PQGQzHdsC42U59Fk3U6y-23" value="aantal" style="rounded=0;whiteSpace=wrap;html=1;" vertex="1" parent="1">
          <mxGeometry x="850" y="400" width="120" height="60" as="geometry" />
        </mxCell>
        <mxCell id="PQGQzHdsC42U59Fk3U6y-24" value="" style="endArrow=classic;startArrow=classic;html=1;rounded=0;" edge="1" parent="1">
          <mxGeometry width="50" height="50" relative="1" as="geometry">
            <mxPoint x="130" y="280" as="sourcePoint" />
            <mxPoint x="370" y="280" as="targetPoint" />
          </mxGeometry>
        </mxCell>
        <mxCell id="PQGQzHdsC42U59Fk3U6y-25" value="datum_en_tijd" style="rounded=0;whiteSpace=wrap;html=1;" vertex="1" parent="1">
          <mxGeometry x="130" y="400" width="120" height="60" as="geometry" />
        </mxCell>
        <mxCell id="PQGQzHdsC42U59Fk3U6y-26" value="klantcode" style="rounded=0;whiteSpace=wrap;html=1;" vertex="1" parent="1">
          <mxGeometry x="250" y="400" width="120" height="60" as="geometry" />
        </mxCell>
        <mxCell id="PQGQzHdsC42U59Fk3U6y-27" value="Bonregel" style="text;html=1;align=center;verticalAlign=middle;resizable=0;points=[];autosize=1;strokeColor=none;fillColor=none;" vertex="1" parent="1">
          <mxGeometry x="40" y="415" width="70" height="30" as="geometry" />
        </mxCell>
        <mxCell id="PQGQzHdsC42U59Fk3U6y-28" value="" style="endArrow=classic;startArrow=classic;html=1;rounded=0;" edge="1" parent="1">
          <mxGeometry width="50" height="50" relative="1" as="geometry">
            <mxPoint x="130" y="390" as="sourcePoint" />
            <mxPoint x="490" y="390" as="targetPoint" />
          </mxGeometry>
        </mxCell>
        <mxCell id="PQGQzHdsC42U59Fk3U6y-29" value="productcode" style="rounded=0;whiteSpace=wrap;html=1;" vertex="1" parent="1">
          <mxGeometry x="370" y="760" width="120" height="60" as="geometry" />
        </mxCell>
        <mxCell id="PQGQzHdsC42U59Fk3U6y-30" value="2NF &amp;amp; 3NF" style="text;html=1;align=center;verticalAlign=middle;whiteSpace=wrap;rounded=0;" vertex="1" parent="1">
          <mxGeometry x="40" y="510" width="80" height="30" as="geometry" />
        </mxCell>
        <mxCell id="PQGQzHdsC42U59Fk3U6y-31" value="Aankoop" style="text;html=1;align=center;verticalAlign=middle;whiteSpace=wrap;rounded=0;" vertex="1" parent="1">
          <mxGeometry x="40" y="660" width="60" height="30" as="geometry" />
        </mxCell>
        <mxCell id="PQGQzHdsC42U59Fk3U6y-32" value="productnaam" style="rounded=0;whiteSpace=wrap;html=1;" vertex="1" parent="1">
          <mxGeometry x="490" y="860" width="120" height="60" as="geometry" />
        </mxCell>
        <mxCell id="PQGQzHdsC42U59Fk3U6y-33" value="datum_en_tijd" style="rounded=0;whiteSpace=wrap;html=1;" vertex="1" parent="1">
          <mxGeometry x="130" y="645" width="120" height="60" as="geometry" />
        </mxCell>
        <mxCell id="PQGQzHdsC42U59Fk3U6y-34" value="klantcode" style="rounded=0;whiteSpace=wrap;html=1;" vertex="1" parent="1">
          <mxGeometry x="250" y="645" width="120" height="60" as="geometry" />
        </mxCell>
        <mxCell id="PQGQzHdsC42U59Fk3U6y-35" value="klantnaam" style="rounded=0;whiteSpace=wrap;html=1;" vertex="1" parent="1">
          <mxGeometry x="370" y="540" width="120" height="60" as="geometry" />
        </mxCell>
        <mxCell id="PQGQzHdsC42U59Fk3U6y-36" value="e-mailadres" style="rounded=0;whiteSpace=wrap;html=1;" vertex="1" parent="1">
          <mxGeometry x="490" y="540" width="120" height="60" as="geometry" />
        </mxCell>
        <mxCell id="PQGQzHdsC42U59Fk3U6y-37" value="korte_naam" style="rounded=0;whiteSpace=wrap;html=1;" vertex="1" parent="1">
          <mxGeometry x="610" y="860" width="120" height="60" as="geometry" />
        </mxCell>
        <mxCell id="PQGQzHdsC42U59Fk3U6y-38" value="prijs" style="rounded=0;whiteSpace=wrap;html=1;" vertex="1" parent="1">
          <mxGeometry x="730" y="860" width="120" height="60" as="geometry" />
        </mxCell>
        <mxCell id="PQGQzHdsC42U59Fk3U6y-39" value="aantal" style="rounded=0;whiteSpace=wrap;html=1;" vertex="1" parent="1">
          <mxGeometry x="490" y="760" width="120" height="60" as="geometry" />
        </mxCell>
        <mxCell id="PQGQzHdsC42U59Fk3U6y-40" value="" style="endArrow=classic;startArrow=classic;html=1;rounded=0;" edge="1" parent="1">
          <mxGeometry width="50" height="50" relative="1" as="geometry">
            <mxPoint x="130" y="640" as="sourcePoint" />
            <mxPoint x="370" y="640" as="targetPoint" />
          </mxGeometry>
        </mxCell>
        <mxCell id="PQGQzHdsC42U59Fk3U6y-41" value="datum_en_tijd" style="rounded=0;whiteSpace=wrap;html=1;" vertex="1" parent="1">
          <mxGeometry x="130" y="760" width="120" height="60" as="geometry" />
        </mxCell>
        <mxCell id="PQGQzHdsC42U59Fk3U6y-42" value="klantcode" style="rounded=0;whiteSpace=wrap;html=1;" vertex="1" parent="1">
          <mxGeometry x="250" y="760" width="120" height="60" as="geometry" />
        </mxCell>
        <mxCell id="PQGQzHdsC42U59Fk3U6y-43" value="Bonregel" style="text;html=1;align=center;verticalAlign=middle;resizable=0;points=[];autosize=1;strokeColor=none;fillColor=none;" vertex="1" parent="1">
          <mxGeometry x="40" y="775" width="70" height="30" as="geometry" />
        </mxCell>
        <mxCell id="PQGQzHdsC42U59Fk3U6y-44" value="" style="endArrow=classic;startArrow=classic;html=1;rounded=0;" edge="1" parent="1">
          <mxGeometry width="50" height="50" relative="1" as="geometry">
            <mxPoint x="130" y="750" as="sourcePoint" />
            <mxPoint x="490" y="750" as="targetPoint" />
          </mxGeometry>
        </mxCell>
        <mxCell id="PQGQzHdsC42U59Fk3U6y-45" value="klantcode" style="rounded=0;whiteSpace=wrap;html=1;" vertex="1" parent="1">
          <mxGeometry x="250" y="540.5" width="120" height="60" as="geometry" />
        </mxCell>
        <mxCell id="PQGQzHdsC42U59Fk3U6y-46" value="" style="endArrow=classic;html=1;rounded=0;entryX=0;entryY=1;entryDx=0;entryDy=0;" edge="1" parent="1" target="PQGQzHdsC42U59Fk3U6y-18">
          <mxGeometry width="50" height="50" relative="1" as="geometry">
            <mxPoint x="250" y="400" as="sourcePoint" />
            <mxPoint x="300" y="350" as="targetPoint" />
          </mxGeometry>
        </mxCell>
        <mxCell id="PQGQzHdsC42U59Fk3U6y-47" value="" style="endArrow=classic;html=1;rounded=0;exitX=0.5;exitY=0;exitDx=0;exitDy=0;entryX=0.5;entryY=1;entryDx=0;entryDy=0;" edge="1" parent="1" source="PQGQzHdsC42U59Fk3U6y-34" target="PQGQzHdsC42U59Fk3U6y-45">
          <mxGeometry width="50" height="50" relative="1" as="geometry">
            <mxPoint x="450" y="690" as="sourcePoint" />
            <mxPoint x="500" y="640" as="targetPoint" />
          </mxGeometry>
        </mxCell>
        <mxCell id="PQGQzHdsC42U59Fk3U6y-48" value="" style="endArrow=classic;startArrow=classic;html=1;rounded=0;" edge="1" parent="1">
          <mxGeometry width="50" height="50" relative="1" as="geometry">
            <mxPoint x="250" y="530" as="sourcePoint" />
            <mxPoint x="370" y="530" as="targetPoint" />
          </mxGeometry>
        </mxCell>
        <mxCell id="PQGQzHdsC42U59Fk3U6y-49" value="Klant" style="text;html=1;align=center;verticalAlign=middle;whiteSpace=wrap;rounded=0;" vertex="1" parent="1">
          <mxGeometry x="40" y="550" width="60" height="30" as="geometry" />
        </mxCell>
        <mxCell id="PQGQzHdsC42U59Fk3U6y-50" value="" style="endArrow=classic;html=1;rounded=0;entryX=0;entryY=1;entryDx=0;entryDy=0;" edge="1" parent="1" target="PQGQzHdsC42U59Fk3U6y-34">
          <mxGeometry width="50" height="50" relative="1" as="geometry">
            <mxPoint x="250" y="760" as="sourcePoint" />
            <mxPoint x="300" y="710" as="targetPoint" />
          </mxGeometry>
        </mxCell>
        <mxCell id="PQGQzHdsC42U59Fk3U6y-51" value="productcode&amp;nbsp;&lt;div&gt;(EAN-13)&lt;/div&gt;" style="rounded=0;whiteSpace=wrap;html=1;" vertex="1" parent="1">
          <mxGeometry x="370" y="860" width="120" height="60" as="geometry" />
        </mxCell>
        <mxCell id="PQGQzHdsC42U59Fk3U6y-52" value="" style="endArrow=classic;startArrow=classic;html=1;rounded=0;" edge="1" parent="1">
          <mxGeometry width="50" height="50" relative="1" as="geometry">
            <mxPoint x="370" y="850" as="sourcePoint" />
            <mxPoint x="490" y="850" as="targetPoint" />
          </mxGeometry>
        </mxCell>
        <mxCell id="PQGQzHdsC42U59Fk3U6y-53" value="" style="endArrow=classic;html=1;rounded=0;exitX=0.5;exitY=1;exitDx=0;exitDy=0;entryX=0.5;entryY=0;entryDx=0;entryDy=0;" edge="1" parent="1" source="PQGQzHdsC42U59Fk3U6y-29" target="PQGQzHdsC42U59Fk3U6y-51">
          <mxGeometry width="50" height="50" relative="1" as="geometry">
            <mxPoint x="520" y="700" as="sourcePoint" />
            <mxPoint x="570" y="650" as="targetPoint" />
          </mxGeometry>
        </mxCell>
        <mxCell id="PQGQzHdsC42U59Fk3U6y-54" value="Product" style="text;html=1;align=center;verticalAlign=middle;whiteSpace=wrap;rounded=0;" vertex="1" parent="1">
          <mxGeometry x="40" y="875" width="60" height="30" as="geometry" />
        </mxCell>
        <mxCell id="PQGQzHdsC42U59Fk3U6y-55" value="" style="shape=link;html=1;rounded=0;" edge="1" parent="1">
          <mxGeometry width="100" relative="1" as="geometry">
            <mxPoint x="20" y="1000" as="sourcePoint" />
            <mxPoint x="1230" y="1000" as="targetPoint" />
          </mxGeometry>
        </mxCell>
        <mxCell id="PQGQzHdsC42U59Fk3U6y-56" value="Basis" style="text;html=1;align=center;verticalAlign=middle;whiteSpace=wrap;rounded=0;" vertex="1" parent="1">
          <mxGeometry x="590" y="30" width="60" height="30" as="geometry" />
        </mxCell>
        <mxCell id="PQGQzHdsC42U59Fk3U6y-57" value="productcode" style="rounded=0;whiteSpace=wrap;html=1;fillColor=#f5f5f5;fontColor=#333333;strokeColor=#666666;" vertex="1" parent="1">
          <mxGeometry x="390" y="1400" width="120" height="60" as="geometry" />
        </mxCell>
        <mxCell id="PQGQzHdsC42U59Fk3U6y-59" value="Aankoop" style="text;html=1;align=center;verticalAlign=middle;whiteSpace=wrap;rounded=0;" vertex="1" parent="1">
          <mxGeometry x="60" y="1200" width="60" height="30" as="geometry" />
        </mxCell>
        <mxCell id="PQGQzHdsC42U59Fk3U6y-60" value="productnaam" style="rounded=0;whiteSpace=wrap;html=1;fillColor=#f5f5f5;fontColor=#333333;strokeColor=#666666;" vertex="1" parent="1">
          <mxGeometry x="510" y="1300" width="120" height="60" as="geometry" />
        </mxCell>
        <mxCell id="PQGQzHdsC42U59Fk3U6y-61" value="datum_en_tijd" style="rounded=0;whiteSpace=wrap;html=1;fillColor=#f5f5f5;fontColor=#333333;strokeColor=#666666;" vertex="1" parent="1">
          <mxGeometry x="150" y="1185" width="120" height="60" as="geometry" />
        </mxCell>
        <mxCell id="PQGQzHdsC42U59Fk3U6y-62" value="klantcode" style="rounded=0;whiteSpace=wrap;html=1;fillColor=#f5f5f5;fontColor=#333333;strokeColor=#666666;" vertex="1" parent="1">
          <mxGeometry x="270" y="1185" width="120" height="60" as="geometry" />
        </mxCell>
        <mxCell id="PQGQzHdsC42U59Fk3U6y-63" value="klantnaam" style="rounded=0;whiteSpace=wrap;html=1;fillColor=#f5f5f5;fontColor=#333333;strokeColor=#666666;" vertex="1" parent="1">
          <mxGeometry x="390" y="1080" width="120" height="60" as="geometry" />
        </mxCell>
        <mxCell id="PQGQzHdsC42U59Fk3U6y-64" value="e-mailadres" style="rounded=0;whiteSpace=wrap;html=1;fillColor=#f5f5f5;fontColor=#333333;strokeColor=#666666;" vertex="1" parent="1">
          <mxGeometry x="510" y="1080" width="120" height="60" as="geometry" />
        </mxCell>
        <mxCell id="PQGQzHdsC42U59Fk3U6y-65" value="korte_naam" style="rounded=0;whiteSpace=wrap;html=1;fillColor=#f5f5f5;fontColor=#333333;strokeColor=#666666;" vertex="1" parent="1">
          <mxGeometry x="630" y="1300" width="120" height="60" as="geometry" />
        </mxCell>
        <mxCell id="PQGQzHdsC42U59Fk3U6y-66" value="prijs" style="rounded=0;whiteSpace=wrap;html=1;fillColor=#f5f5f5;fontColor=#333333;strokeColor=#666666;" vertex="1" parent="1">
          <mxGeometry x="750" y="1300" width="120" height="60" as="geometry" />
        </mxCell>
        <mxCell id="PQGQzHdsC42U59Fk3U6y-67" value="aantal" style="rounded=0;whiteSpace=wrap;html=1;fillColor=#f5f5f5;fontColor=#333333;strokeColor=#666666;" vertex="1" parent="1">
          <mxGeometry x="510" y="1400" width="120" height="60" as="geometry" />
        </mxCell>
        <mxCell id="PQGQzHdsC42U59Fk3U6y-68" value="" style="endArrow=classic;startArrow=classic;html=1;rounded=0;fillColor=#f5f5f5;strokeColor=#666666;" edge="1" parent="1">
          <mxGeometry width="50" height="50" relative="1" as="geometry">
            <mxPoint x="150" y="1180" as="sourcePoint" />
            <mxPoint x="390" y="1180" as="targetPoint" />
          </mxGeometry>
        </mxCell>
        <mxCell id="PQGQzHdsC42U59Fk3U6y-69" value="datum_en_tijd" style="rounded=0;whiteSpace=wrap;html=1;fillColor=#f5f5f5;fontColor=#333333;strokeColor=#666666;" vertex="1" parent="1">
          <mxGeometry x="150" y="1400" width="120" height="60" as="geometry" />
        </mxCell>
        <mxCell id="PQGQzHdsC42U59Fk3U6y-70" value="klantcode" style="rounded=0;whiteSpace=wrap;html=1;fillColor=#f5f5f5;fontColor=#333333;strokeColor=#666666;" vertex="1" parent="1">
          <mxGeometry x="270" y="1400" width="120" height="60" as="geometry" />
        </mxCell>
        <mxCell id="PQGQzHdsC42U59Fk3U6y-71" value="Bonregel" style="text;html=1;align=center;verticalAlign=middle;resizable=0;points=[];autosize=1;strokeColor=none;fillColor=none;" vertex="1" parent="1">
          <mxGeometry x="60" y="1415" width="70" height="30" as="geometry" />
        </mxCell>
        <mxCell id="PQGQzHdsC42U59Fk3U6y-72" value="" style="endArrow=classic;startArrow=classic;html=1;rounded=0;fillColor=#f5f5f5;strokeColor=#666666;" edge="1" parent="1">
          <mxGeometry width="50" height="50" relative="1" as="geometry">
            <mxPoint x="150" y="1390" as="sourcePoint" />
            <mxPoint x="510" y="1390" as="targetPoint" />
          </mxGeometry>
        </mxCell>
        <mxCell id="PQGQzHdsC42U59Fk3U6y-73" value="klantcode" style="rounded=0;whiteSpace=wrap;html=1;fillColor=#f5f5f5;fontColor=#333333;strokeColor=#666666;" vertex="1" parent="1">
          <mxGeometry x="270" y="1080.5" width="120" height="60" as="geometry" />
        </mxCell>
        <mxCell id="PQGQzHdsC42U59Fk3U6y-74" value="" style="endArrow=classic;html=1;rounded=0;exitX=0.5;exitY=0;exitDx=0;exitDy=0;entryX=0.5;entryY=1;entryDx=0;entryDy=0;fillColor=#f5f5f5;strokeColor=#666666;" edge="1" parent="1" source="PQGQzHdsC42U59Fk3U6y-62" target="PQGQzHdsC42U59Fk3U6y-73">
          <mxGeometry width="50" height="50" relative="1" as="geometry">
            <mxPoint x="470" y="1230" as="sourcePoint" />
            <mxPoint x="520" y="1180" as="targetPoint" />
          </mxGeometry>
        </mxCell>
        <mxCell id="PQGQzHdsC42U59Fk3U6y-75" value="" style="endArrow=classic;startArrow=classic;html=1;rounded=0;fillColor=#f5f5f5;strokeColor=#666666;" edge="1" parent="1">
          <mxGeometry width="50" height="50" relative="1" as="geometry">
            <mxPoint x="270" y="1070" as="sourcePoint" />
            <mxPoint x="390" y="1070" as="targetPoint" />
          </mxGeometry>
        </mxCell>
        <mxCell id="PQGQzHdsC42U59Fk3U6y-76" value="Klant" style="text;html=1;align=center;verticalAlign=middle;whiteSpace=wrap;rounded=0;" vertex="1" parent="1">
          <mxGeometry x="60" y="1090" width="60" height="30" as="geometry" />
        </mxCell>
        <mxCell id="PQGQzHdsC42U59Fk3U6y-77" value="" style="endArrow=classic;html=1;rounded=0;entryX=0;entryY=1;entryDx=0;entryDy=0;fillColor=#f5f5f5;strokeColor=#666666;exitX=0;exitY=0;exitDx=0;exitDy=0;" edge="1" parent="1" target="PQGQzHdsC42U59Fk3U6y-62" source="PQGQzHdsC42U59Fk3U6y-70">
          <mxGeometry width="50" height="50" relative="1" as="geometry">
            <mxPoint x="270" y="1300" as="sourcePoint" />
            <mxPoint x="320" y="1250" as="targetPoint" />
          </mxGeometry>
        </mxCell>
        <mxCell id="PQGQzHdsC42U59Fk3U6y-78" value="productcode&amp;nbsp;&lt;div&gt;(EAN-13)&lt;/div&gt;" style="rounded=0;whiteSpace=wrap;html=1;fillColor=#f5f5f5;fontColor=#333333;strokeColor=#666666;" vertex="1" parent="1">
          <mxGeometry x="390" y="1300" width="120" height="60" as="geometry" />
        </mxCell>
        <mxCell id="PQGQzHdsC42U59Fk3U6y-79" value="" style="endArrow=classic;startArrow=classic;html=1;rounded=0;fillColor=#f5f5f5;strokeColor=#666666;" edge="1" parent="1">
          <mxGeometry width="50" height="50" relative="1" as="geometry">
            <mxPoint x="390" y="1290" as="sourcePoint" />
            <mxPoint x="510" y="1290" as="targetPoint" />
          </mxGeometry>
        </mxCell>
        <mxCell id="PQGQzHdsC42U59Fk3U6y-80" value="" style="endArrow=classic;html=1;rounded=0;fillColor=#f5f5f5;strokeColor=#666666;" edge="1" parent="1">
          <mxGeometry width="50" height="50" relative="1" as="geometry">
            <mxPoint x="450" y="1400" as="sourcePoint" />
            <mxPoint x="450" y="1360" as="targetPoint" />
          </mxGeometry>
        </mxCell>
        <mxCell id="PQGQzHdsC42U59Fk3U6y-81" value="Product" style="text;html=1;align=center;verticalAlign=middle;whiteSpace=wrap;rounded=0;" vertex="1" parent="1">
          <mxGeometry x="65" y="1310" width="60" height="30" as="geometry" />
        </mxCell>
        <mxCell id="PQGQzHdsC42U59Fk3U6y-82" value="score" style="rounded=0;whiteSpace=wrap;html=1;" vertex="1" parent="1">
          <mxGeometry x="630" y="1080" width="120" height="60" as="geometry" />
        </mxCell>
        <mxCell id="PQGQzHdsC42U59Fk3U6y-83" value="afreken_type&lt;div&gt;(kassa, zelf-scan)&lt;/div&gt;" style="rounded=0;whiteSpace=wrap;html=1;" vertex="1" parent="1">
          <mxGeometry x="390" y="1185" width="120" height="60" as="geometry" />
        </mxCell>
        <mxCell id="PQGQzHdsC42U59Fk3U6y-84" value="controle&lt;div&gt;(null, true, false)&lt;/div&gt;" style="rounded=0;whiteSpace=wrap;html=1;" vertex="1" parent="1">
          <mxGeometry x="510" y="1185" width="120" height="60" as="geometry" />
        </mxCell>
        <mxCell id="PQGQzHdsC42U59Fk3U6y-85" value="actiecode" style="rounded=0;whiteSpace=wrap;html=1;" vertex="1" parent="1">
          <mxGeometry x="630" y="1500" width="120" height="60" as="geometry" />
        </mxCell>
        <mxCell id="PQGQzHdsC42U59Fk3U6y-86" value="actiecode" style="rounded=0;whiteSpace=wrap;html=1;" vertex="1" parent="1">
          <mxGeometry x="630" y="1400" width="120" height="60" as="geometry" />
        </mxCell>
        <mxCell id="PQGQzHdsC42U59Fk3U6y-87" value="Actie" style="text;html=1;align=center;verticalAlign=middle;whiteSpace=wrap;rounded=0;" vertex="1" parent="1">
          <mxGeometry x="65" y="1510" width="60" height="30" as="geometry" />
        </mxCell>
        <mxCell id="PQGQzHdsC42U59Fk3U6y-89" value="" style="endArrow=classic;startArrow=classic;html=1;rounded=0;" edge="1" parent="1">
          <mxGeometry width="50" height="50" relative="1" as="geometry">
            <mxPoint x="630" y="1490" as="sourcePoint" />
            <mxPoint x="750" y="1490" as="targetPoint" />
          </mxGeometry>
        </mxCell>
        <mxCell id="PQGQzHdsC42U59Fk3U6y-90" value="" style="endArrow=classic;html=1;rounded=0;exitX=0.5;exitY=1;exitDx=0;exitDy=0;" edge="1" parent="1" source="PQGQzHdsC42U59Fk3U6y-86" target="PQGQzHdsC42U59Fk3U6y-85">
          <mxGeometry width="50" height="50" relative="1" as="geometry">
            <mxPoint x="690" y="1480" as="sourcePoint" />
            <mxPoint x="740" y="1410" as="targetPoint" />
          </mxGeometry>
        </mxCell>
        <mxCell id="PQGQzHdsC42U59Fk3U6y-91" value="actietekst" style="rounded=0;whiteSpace=wrap;html=1;" vertex="1" parent="1">
          <mxGeometry x="750" y="1500" width="120" height="60" as="geometry" />
        </mxCell>
        <mxCell id="PQGQzHdsC42U59Fk3U6y-92" value="productcode" style="rounded=0;whiteSpace=wrap;html=1;" vertex="1" parent="1">
          <mxGeometry x="870" y="1500" width="120" height="60" as="geometry" />
        </mxCell>
        <mxCell id="PQGQzHdsC42U59Fk3U6y-93" value="" style="endArrow=classic;html=1;rounded=0;exitX=0.5;exitY=0;exitDx=0;exitDy=0;entryX=0.75;entryY=1;entryDx=0;entryDy=0;" edge="1" parent="1" source="PQGQzHdsC42U59Fk3U6y-92" target="PQGQzHdsC42U59Fk3U6y-78">
          <mxGeometry width="50" height="50" relative="1" as="geometry">
            <mxPoint x="1010" y="1430" as="sourcePoint" />
            <mxPoint x="1060" y="1380" as="targetPoint" />
            <Array as="points">
              <mxPoint x="930" y="1380" />
              <mxPoint x="480" y="1380" />
            </Array>
          </mxGeometry>
        </mxCell>
        <mxCell id="PQGQzHdsC42U59Fk3U6y-95" value="optioneel" style="text;html=1;align=center;verticalAlign=middle;whiteSpace=wrap;rounded=0;fontStyle=2" vertex="1" parent="1">
          <mxGeometry x="690" y="1400" width="60" height="30" as="geometry" />
        </mxCell>
        <mxCell id="PQGQzHdsC42U59Fk3U6y-96" value="optioneel" style="text;html=1;align=center;verticalAlign=middle;whiteSpace=wrap;rounded=0;fontStyle=2" vertex="1" parent="1">
          <mxGeometry x="570" y="1185" width="60" height="30" as="geometry" />
        </mxCell>
        <mxCell id="PQGQzHdsC42U59Fk3U6y-97" value="aantal_producten" style="rounded=0;whiteSpace=wrap;html=1;" vertex="1" parent="1">
          <mxGeometry x="990" y="1500" width="120" height="60" as="geometry" />
        </mxCell>
        <mxCell id="PQGQzHdsC42U59Fk3U6y-98" value="actie_prijs" style="rounded=0;whiteSpace=wrap;html=1;" vertex="1" parent="1">
          <mxGeometry x="1110" y="1500" width="120" height="60" as="geometry" />
        </mxCell>
        <mxCell id="PQGQzHdsC42U59Fk3U6y-99" value="startdatum" style="rounded=0;whiteSpace=wrap;html=1;" vertex="1" parent="1">
          <mxGeometry x="1230" y="1500" width="120" height="60" as="geometry" />
        </mxCell>
        <mxCell id="PQGQzHdsC42U59Fk3U6y-100" value="einddatum" style="rounded=0;whiteSpace=wrap;html=1;" vertex="1" parent="1">
          <mxGeometry x="1350" y="1500" width="120" height="60" as="geometry" />
        </mxCell>
        <mxCell id="PQGQzHdsC42U59Fk3U6y-101" value="productcode" style="rounded=0;whiteSpace=wrap;html=1;fillColor=#f5f5f5;fontColor=#333333;strokeColor=#666666;" vertex="1" parent="1">
          <mxGeometry x="360" y="2090" width="120" height="60" as="geometry" />
        </mxCell>
        <mxCell id="PQGQzHdsC42U59Fk3U6y-102" value="Aankoop" style="text;html=1;align=center;verticalAlign=middle;whiteSpace=wrap;rounded=0;" vertex="1" parent="1">
          <mxGeometry x="30" y="1890" width="60" height="30" as="geometry" />
        </mxCell>
        <mxCell id="PQGQzHdsC42U59Fk3U6y-103" value="productnaam" style="rounded=0;whiteSpace=wrap;html=1;fillColor=#f5f5f5;fontColor=#333333;strokeColor=#666666;" vertex="1" parent="1">
          <mxGeometry x="960" y="1990" width="120" height="60" as="geometry" />
        </mxCell>
        <mxCell id="PQGQzHdsC42U59Fk3U6y-104" value="datum_en_tijd" style="rounded=0;whiteSpace=wrap;html=1;fillColor=#f5f5f5;fontColor=#333333;strokeColor=#666666;" vertex="1" parent="1">
          <mxGeometry x="120" y="1875" width="120" height="60" as="geometry" />
        </mxCell>
        <mxCell id="PQGQzHdsC42U59Fk3U6y-105" value="klantcode" style="rounded=0;whiteSpace=wrap;html=1;fillColor=#f5f5f5;fontColor=#333333;strokeColor=#666666;" vertex="1" parent="1">
          <mxGeometry x="240" y="1875" width="120" height="60" as="geometry" />
        </mxCell>
        <mxCell id="PQGQzHdsC42U59Fk3U6y-106" value="klantnaam" style="rounded=0;whiteSpace=wrap;html=1;fillColor=#f5f5f5;fontColor=#333333;strokeColor=#666666;" vertex="1" parent="1">
          <mxGeometry x="360" y="1770" width="120" height="60" as="geometry" />
        </mxCell>
        <mxCell id="PQGQzHdsC42U59Fk3U6y-107" value="e-mailadres" style="rounded=0;whiteSpace=wrap;html=1;fillColor=#f5f5f5;fontColor=#333333;strokeColor=#666666;" vertex="1" parent="1">
          <mxGeometry x="480" y="1770" width="120" height="60" as="geometry" />
        </mxCell>
        <mxCell id="PQGQzHdsC42U59Fk3U6y-108" value="korte_naam" style="rounded=0;whiteSpace=wrap;html=1;fillColor=#f5f5f5;fontColor=#333333;strokeColor=#666666;" vertex="1" parent="1">
          <mxGeometry x="1080" y="1990" width="120" height="60" as="geometry" />
        </mxCell>
        <mxCell id="PQGQzHdsC42U59Fk3U6y-109" value="prijs" style="rounded=0;whiteSpace=wrap;html=1;fillColor=#f5f5f5;fontColor=#333333;strokeColor=#666666;" vertex="1" parent="1">
          <mxGeometry x="1200" y="1990" width="120" height="60" as="geometry" />
        </mxCell>
        <mxCell id="PQGQzHdsC42U59Fk3U6y-110" value="aantal" style="rounded=0;whiteSpace=wrap;html=1;fillColor=#f5f5f5;fontColor=#333333;strokeColor=#666666;" vertex="1" parent="1">
          <mxGeometry x="480" y="2090" width="120" height="60" as="geometry" />
        </mxCell>
        <mxCell id="PQGQzHdsC42U59Fk3U6y-111" value="" style="endArrow=classic;startArrow=classic;html=1;rounded=0;fillColor=#f5f5f5;strokeColor=#666666;" edge="1" parent="1">
          <mxGeometry width="50" height="50" relative="1" as="geometry">
            <mxPoint x="120" y="1870" as="sourcePoint" />
            <mxPoint x="360" y="1870" as="targetPoint" />
          </mxGeometry>
        </mxCell>
        <mxCell id="PQGQzHdsC42U59Fk3U6y-112" value="datum_en_tijd" style="rounded=0;whiteSpace=wrap;html=1;fillColor=#f5f5f5;fontColor=#333333;strokeColor=#666666;" vertex="1" parent="1">
          <mxGeometry x="120" y="2090" width="120" height="60" as="geometry" />
        </mxCell>
        <mxCell id="PQGQzHdsC42U59Fk3U6y-113" value="klantcode" style="rounded=0;whiteSpace=wrap;html=1;fillColor=#f5f5f5;fontColor=#333333;strokeColor=#666666;" vertex="1" parent="1">
          <mxGeometry x="240" y="2090" width="120" height="60" as="geometry" />
        </mxCell>
        <mxCell id="PQGQzHdsC42U59Fk3U6y-114" value="Bonregel" style="text;html=1;align=center;verticalAlign=middle;resizable=0;points=[];autosize=1;strokeColor=none;fillColor=none;" vertex="1" parent="1">
          <mxGeometry x="30" y="2105" width="70" height="30" as="geometry" />
        </mxCell>
        <mxCell id="PQGQzHdsC42U59Fk3U6y-115" value="" style="endArrow=classic;startArrow=classic;html=1;rounded=0;fillColor=#f5f5f5;strokeColor=#666666;" edge="1" parent="1">
          <mxGeometry width="50" height="50" relative="1" as="geometry">
            <mxPoint x="120" y="2080" as="sourcePoint" />
            <mxPoint x="480" y="2080" as="targetPoint" />
          </mxGeometry>
        </mxCell>
        <mxCell id="PQGQzHdsC42U59Fk3U6y-116" value="klantcode" style="rounded=0;whiteSpace=wrap;html=1;fillColor=#f5f5f5;fontColor=#333333;strokeColor=#666666;" vertex="1" parent="1">
          <mxGeometry x="240" y="1770.5" width="120" height="60" as="geometry" />
        </mxCell>
        <mxCell id="PQGQzHdsC42U59Fk3U6y-117" value="" style="endArrow=classic;html=1;rounded=0;exitX=0.5;exitY=0;exitDx=0;exitDy=0;entryX=0.5;entryY=1;entryDx=0;entryDy=0;fillColor=#f5f5f5;strokeColor=#666666;" edge="1" parent="1" source="PQGQzHdsC42U59Fk3U6y-105" target="PQGQzHdsC42U59Fk3U6y-116">
          <mxGeometry width="50" height="50" relative="1" as="geometry">
            <mxPoint x="440" y="1920" as="sourcePoint" />
            <mxPoint x="490" y="1870" as="targetPoint" />
          </mxGeometry>
        </mxCell>
        <mxCell id="PQGQzHdsC42U59Fk3U6y-118" value="" style="endArrow=classic;startArrow=classic;html=1;rounded=0;fillColor=#f5f5f5;strokeColor=#666666;" edge="1" parent="1">
          <mxGeometry width="50" height="50" relative="1" as="geometry">
            <mxPoint x="240" y="1760" as="sourcePoint" />
            <mxPoint x="360" y="1760" as="targetPoint" />
          </mxGeometry>
        </mxCell>
        <mxCell id="PQGQzHdsC42U59Fk3U6y-119" value="Klant" style="text;html=1;align=center;verticalAlign=middle;whiteSpace=wrap;rounded=0;" vertex="1" parent="1">
          <mxGeometry x="30" y="1780" width="60" height="30" as="geometry" />
        </mxCell>
        <mxCell id="PQGQzHdsC42U59Fk3U6y-120" value="" style="endArrow=classic;html=1;rounded=0;entryX=0;entryY=1;entryDx=0;entryDy=0;fillColor=#f5f5f5;strokeColor=#666666;exitX=0;exitY=0;exitDx=0;exitDy=0;" edge="1" parent="1" source="PQGQzHdsC42U59Fk3U6y-113" target="PQGQzHdsC42U59Fk3U6y-105">
          <mxGeometry width="50" height="50" relative="1" as="geometry">
            <mxPoint x="240" y="1990" as="sourcePoint" />
            <mxPoint x="290" y="1940" as="targetPoint" />
          </mxGeometry>
        </mxCell>
        <mxCell id="PQGQzHdsC42U59Fk3U6y-121" value="productcode&amp;nbsp;&lt;div&gt;(EAN-13)&lt;/div&gt;" style="rounded=0;whiteSpace=wrap;html=1;fillColor=#f5f5f5;fontColor=#333333;strokeColor=#666666;" vertex="1" parent="1">
          <mxGeometry x="840" y="1990" width="120" height="60" as="geometry" />
        </mxCell>
        <mxCell id="PQGQzHdsC42U59Fk3U6y-122" value="" style="endArrow=classic;startArrow=classic;html=1;rounded=0;fillColor=#f5f5f5;strokeColor=#666666;" edge="1" parent="1">
          <mxGeometry width="50" height="50" relative="1" as="geometry">
            <mxPoint x="840" y="1980" as="sourcePoint" />
            <mxPoint x="960" y="1980" as="targetPoint" />
          </mxGeometry>
        </mxCell>
        <mxCell id="PQGQzHdsC42U59Fk3U6y-123" value="" style="endArrow=classic;html=1;rounded=0;fillColor=#f5f5f5;strokeColor=#666666;entryX=0.25;entryY=1;entryDx=0;entryDy=0;" edge="1" parent="1" target="PQGQzHdsC42U59Fk3U6y-121">
          <mxGeometry width="50" height="50" relative="1" as="geometry">
            <mxPoint x="420" y="2090" as="sourcePoint" />
            <mxPoint x="420" y="2050" as="targetPoint" />
            <Array as="points">
              <mxPoint x="420" y="2070" />
              <mxPoint x="870" y="2070" />
            </Array>
          </mxGeometry>
        </mxCell>
        <mxCell id="PQGQzHdsC42U59Fk3U6y-124" value="Product" style="text;html=1;align=center;verticalAlign=middle;whiteSpace=wrap;rounded=0;" vertex="1" parent="1">
          <mxGeometry x="35" y="2000" width="60" height="30" as="geometry" />
        </mxCell>
        <mxCell id="PQGQzHdsC42U59Fk3U6y-125" value="score" style="rounded=0;whiteSpace=wrap;html=1;fillColor=#f5f5f5;fontColor=#333333;strokeColor=#666666;" vertex="1" parent="1">
          <mxGeometry x="600" y="1770" width="120" height="60" as="geometry" />
        </mxCell>
        <mxCell id="PQGQzHdsC42U59Fk3U6y-126" value="afreken_type&lt;div&gt;(kassa, zelf-scan)&lt;/div&gt;" style="rounded=0;whiteSpace=wrap;html=1;fillColor=#f5f5f5;fontColor=#333333;strokeColor=#666666;" vertex="1" parent="1">
          <mxGeometry x="360" y="1875" width="120" height="60" as="geometry" />
        </mxCell>
        <mxCell id="PQGQzHdsC42U59Fk3U6y-127" value="controle&lt;div&gt;(null, true, false)&lt;/div&gt;" style="rounded=0;whiteSpace=wrap;html=1;fillColor=#f5f5f5;fontColor=#333333;strokeColor=#666666;" vertex="1" parent="1">
          <mxGeometry x="480" y="1875" width="120" height="60" as="geometry" />
        </mxCell>
        <mxCell id="PQGQzHdsC42U59Fk3U6y-128" value="actiecode" style="rounded=0;whiteSpace=wrap;html=1;fillColor=#f5f5f5;fontColor=#333333;strokeColor=#666666;" vertex="1" parent="1">
          <mxGeometry x="600" y="2190" width="120" height="60" as="geometry" />
        </mxCell>
        <mxCell id="PQGQzHdsC42U59Fk3U6y-129" value="actiecode" style="rounded=0;whiteSpace=wrap;html=1;fillColor=#f5f5f5;fontColor=#333333;strokeColor=#666666;" vertex="1" parent="1">
          <mxGeometry x="600" y="2090" width="120" height="60" as="geometry" />
        </mxCell>
        <mxCell id="PQGQzHdsC42U59Fk3U6y-130" value="Actie" style="text;html=1;align=center;verticalAlign=middle;whiteSpace=wrap;rounded=0;" vertex="1" parent="1">
          <mxGeometry x="35" y="2200" width="60" height="30" as="geometry" />
        </mxCell>
        <mxCell id="PQGQzHdsC42U59Fk3U6y-131" value="" style="endArrow=classic;startArrow=classic;html=1;rounded=0;fillColor=#f5f5f5;strokeColor=#666666;" edge="1" parent="1">
          <mxGeometry width="50" height="50" relative="1" as="geometry">
            <mxPoint x="600" y="2180" as="sourcePoint" />
            <mxPoint x="720" y="2180" as="targetPoint" />
          </mxGeometry>
        </mxCell>
        <mxCell id="PQGQzHdsC42U59Fk3U6y-132" value="" style="endArrow=classic;html=1;rounded=0;exitX=0.5;exitY=1;exitDx=0;exitDy=0;fillColor=#f5f5f5;strokeColor=#666666;" edge="1" parent="1" source="PQGQzHdsC42U59Fk3U6y-129" target="PQGQzHdsC42U59Fk3U6y-128">
          <mxGeometry width="50" height="50" relative="1" as="geometry">
            <mxPoint x="660" y="2170" as="sourcePoint" />
            <mxPoint x="710" y="2100" as="targetPoint" />
          </mxGeometry>
        </mxCell>
        <mxCell id="PQGQzHdsC42U59Fk3U6y-133" value="actietekst" style="rounded=0;whiteSpace=wrap;html=1;fillColor=#f5f5f5;fontColor=#333333;strokeColor=#666666;" vertex="1" parent="1">
          <mxGeometry x="720" y="2190" width="120" height="60" as="geometry" />
        </mxCell>
        <mxCell id="PQGQzHdsC42U59Fk3U6y-134" value="productcode" style="rounded=0;whiteSpace=wrap;html=1;fillColor=#f5f5f5;fontColor=#333333;strokeColor=#666666;" vertex="1" parent="1">
          <mxGeometry x="840" y="2190" width="120" height="60" as="geometry" />
        </mxCell>
        <mxCell id="PQGQzHdsC42U59Fk3U6y-135" value="" style="endArrow=classic;html=1;rounded=0;exitX=0.5;exitY=0;exitDx=0;exitDy=0;entryX=0.5;entryY=1;entryDx=0;entryDy=0;fillColor=#f5f5f5;strokeColor=#666666;" edge="1" parent="1" source="PQGQzHdsC42U59Fk3U6y-134" target="PQGQzHdsC42U59Fk3U6y-121">
          <mxGeometry width="50" height="50" relative="1" as="geometry">
            <mxPoint x="980" y="2120" as="sourcePoint" />
            <mxPoint x="1030" y="2070" as="targetPoint" />
            <Array as="points">
              <mxPoint x="900" y="2070" />
            </Array>
          </mxGeometry>
        </mxCell>
        <mxCell id="PQGQzHdsC42U59Fk3U6y-136" value="optioneel" style="text;html=1;align=center;verticalAlign=middle;whiteSpace=wrap;rounded=0;fontStyle=2;fillColor=#f5f5f5;fontColor=#333333;strokeColor=#666666;glass=0;" vertex="1" parent="1">
          <mxGeometry x="660" y="2090" width="60" height="30" as="geometry" />
        </mxCell>
        <mxCell id="PQGQzHdsC42U59Fk3U6y-137" value="optioneel" style="text;html=1;align=center;verticalAlign=middle;whiteSpace=wrap;rounded=0;fontStyle=2;fillColor=#f5f5f5;fontColor=#333333;strokeColor=#666666;" vertex="1" parent="1">
          <mxGeometry x="540" y="1875" width="60" height="30" as="geometry" />
        </mxCell>
        <mxCell id="PQGQzHdsC42U59Fk3U6y-138" value="aantal_producten" style="rounded=0;whiteSpace=wrap;html=1;fillColor=#f5f5f5;fontColor=#333333;strokeColor=#666666;" vertex="1" parent="1">
          <mxGeometry x="960" y="2190" width="120" height="60" as="geometry" />
        </mxCell>
        <mxCell id="PQGQzHdsC42U59Fk3U6y-139" value="actie_prijs" style="rounded=0;whiteSpace=wrap;html=1;fillColor=#f5f5f5;fontColor=#333333;strokeColor=#666666;" vertex="1" parent="1">
          <mxGeometry x="1080" y="2190" width="120" height="60" as="geometry" />
        </mxCell>
        <mxCell id="PQGQzHdsC42U59Fk3U6y-140" value="startdatum" style="rounded=0;whiteSpace=wrap;html=1;fillColor=#f5f5f5;fontColor=#333333;strokeColor=#666666;" vertex="1" parent="1">
          <mxGeometry x="1200" y="2190" width="120" height="60" as="geometry" />
        </mxCell>
        <mxCell id="PQGQzHdsC42U59Fk3U6y-141" value="einddatum" style="rounded=0;whiteSpace=wrap;html=1;fillColor=#f5f5f5;fontColor=#333333;strokeColor=#666666;" vertex="1" parent="1">
          <mxGeometry x="1320" y="2190" width="120" height="60" as="geometry" />
        </mxCell>
        <mxCell id="PQGQzHdsC42U59Fk3U6y-142" value="" style="shape=link;html=1;rounded=0;" edge="1" parent="1">
          <mxGeometry width="100" relative="1" as="geometry">
            <mxPoint x="20" y="1700" as="sourcePoint" />
            <mxPoint x="1230" y="1700" as="targetPoint" />
          </mxGeometry>
        </mxCell>
        <mxCell id="PQGQzHdsC42U59Fk3U6y-143" value="Favoriet" style="text;html=1;align=center;verticalAlign=middle;whiteSpace=wrap;rounded=0;" vertex="1" parent="1">
          <mxGeometry x="800" y="1780" width="60" height="30" as="geometry" />
        </mxCell>
        <mxCell id="PQGQzHdsC42U59Fk3U6y-144" value="klantcode" style="rounded=0;whiteSpace=wrap;html=1;" vertex="1" parent="1">
          <mxGeometry x="910" y="1770" width="120" height="60" as="geometry" />
        </mxCell>
        <mxCell id="PQGQzHdsC42U59Fk3U6y-145" value="productcode" style="rounded=0;whiteSpace=wrap;html=1;" vertex="1" parent="1">
          <mxGeometry x="1030" y="1770" width="120" height="60" as="geometry" />
        </mxCell>
        <mxCell id="PQGQzHdsC42U59Fk3U6y-146" value="" style="endArrow=classic;html=1;rounded=0;exitX=0.5;exitY=0;exitDx=0;exitDy=0;entryX=0.5;entryY=0;entryDx=0;entryDy=0;" edge="1" parent="1" source="PQGQzHdsC42U59Fk3U6y-144" target="PQGQzHdsC42U59Fk3U6y-116">
          <mxGeometry width="50" height="50" relative="1" as="geometry">
            <mxPoint x="960" y="1760" as="sourcePoint" />
            <mxPoint x="1010" y="1710" as="targetPoint" />
            <Array as="points">
              <mxPoint x="970" y="1740" />
              <mxPoint x="300" y="1740" />
            </Array>
          </mxGeometry>
        </mxCell>
        <mxCell id="PQGQzHdsC42U59Fk3U6y-147" value="" style="endArrow=classic;html=1;rounded=0;exitX=0.5;exitY=1;exitDx=0;exitDy=0;entryX=0.5;entryY=0;entryDx=0;entryDy=0;" edge="1" parent="1" source="PQGQzHdsC42U59Fk3U6y-145" target="PQGQzHdsC42U59Fk3U6y-121">
          <mxGeometry width="50" height="50" relative="1" as="geometry">
            <mxPoint x="1090" y="1950" as="sourcePoint" />
            <mxPoint x="1140" y="1900" as="targetPoint" />
            <Array as="points">
              <mxPoint x="1090" y="1870" />
              <mxPoint x="900" y="1870" />
            </Array>
          </mxGeometry>
        </mxCell>
        <mxCell id="PQGQzHdsC42U59Fk3U6y-148" value="" style="endArrow=classic;startArrow=classic;html=1;rounded=0;" edge="1" parent="1">
          <mxGeometry width="50" height="50" relative="1" as="geometry">
            <mxPoint x="910" y="1760" as="sourcePoint" />
            <mxPoint x="1150" y="1760" as="targetPoint" />
          </mxGeometry>
        </mxCell>
        <mxCell id="PQGQzHdsC42U59Fk3U6y-150" value="categorie-naam" style="rounded=0;whiteSpace=wrap;html=1;" vertex="1" parent="1">
          <mxGeometry x="1320" y="1770.5" width="120" height="60" as="geometry" />
        </mxCell>
        <mxCell id="PQGQzHdsC42U59Fk3U6y-151" value="beschrijving" style="rounded=0;whiteSpace=wrap;html=1;" vertex="1" parent="1">
          <mxGeometry x="1440" y="1770.5" width="120" height="60" as="geometry" />
        </mxCell>
        <mxCell id="PQGQzHdsC42U59Fk3U6y-152" value="Categorie" style="text;html=1;align=center;verticalAlign=middle;whiteSpace=wrap;rounded=0;" vertex="1" parent="1">
          <mxGeometry x="1210" y="1785.5" width="60" height="30" as="geometry" />
        </mxCell>
        <mxCell id="PQGQzHdsC42U59Fk3U6y-153" value="" style="endArrow=classic;startArrow=classic;html=1;rounded=0;" edge="1" parent="1">
          <mxGeometry width="50" height="50" relative="1" as="geometry">
            <mxPoint x="1320" y="1760.5" as="sourcePoint" />
            <mxPoint x="1440" y="1760.5" as="targetPoint" />
          </mxGeometry>
        </mxCell>
        <mxCell id="PQGQzHdsC42U59Fk3U6y-155" value="categorie-naam" style="rounded=0;whiteSpace=wrap;html=1;" vertex="1" parent="1">
          <mxGeometry x="1320" y="1880" width="120" height="60" as="geometry" />
        </mxCell>
        <mxCell id="PQGQzHdsC42U59Fk3U6y-156" value="productcode" style="rounded=0;whiteSpace=wrap;html=1;" vertex="1" parent="1">
          <mxGeometry x="1200" y="1880" width="120" height="60" as="geometry" />
        </mxCell>
        <mxCell id="PQGQzHdsC42U59Fk3U6y-157" value="" style="endArrow=classic;startArrow=classic;html=1;rounded=0;" edge="1" parent="1">
          <mxGeometry width="50" height="50" relative="1" as="geometry">
            <mxPoint x="1200" y="1870" as="sourcePoint" />
            <mxPoint x="1440" y="1870" as="targetPoint" />
          </mxGeometry>
        </mxCell>
        <mxCell id="PQGQzHdsC42U59Fk3U6y-158" value="" style="endArrow=classic;html=1;rounded=0;exitX=0.5;exitY=0;exitDx=0;exitDy=0;entryX=0.5;entryY=1;entryDx=0;entryDy=0;" edge="1" parent="1" source="PQGQzHdsC42U59Fk3U6y-155" target="PQGQzHdsC42U59Fk3U6y-150">
          <mxGeometry width="50" height="50" relative="1" as="geometry">
            <mxPoint x="1500" y="1990" as="sourcePoint" />
            <mxPoint x="1550" y="1940" as="targetPoint" />
          </mxGeometry>
        </mxCell>
        <mxCell id="PQGQzHdsC42U59Fk3U6y-159" value="" style="endArrow=classic;html=1;rounded=0;entryX=0.75;entryY=0;entryDx=0;entryDy=0;exitX=0.5;exitY=1;exitDx=0;exitDy=0;" edge="1" parent="1" source="PQGQzHdsC42U59Fk3U6y-156" target="PQGQzHdsC42U59Fk3U6y-121">
          <mxGeometry width="50" height="50" relative="1" as="geometry">
            <mxPoint x="1060" y="1960" as="sourcePoint" />
            <mxPoint x="1110" y="1910" as="targetPoint" />
            <Array as="points">
              <mxPoint x="1260" y="1960" />
              <mxPoint x="930" y="1960" />
            </Array>
          </mxGeometry>
        </mxCell>
        <mxCell id="PQGQzHdsC42U59Fk3U6y-160" value="Categorie_Deelname" style="text;html=1;align=center;verticalAlign=middle;whiteSpace=wrap;rounded=0;" vertex="1" parent="1">
          <mxGeometry x="1090" y="1895" width="60" height="30" as="geometry" />
        </mxCell>
      </root>
    </mxGraphModel>
  </diagram>
</mxfile>
